<?xml version="1.0" encoding="UTF-8" standalone="no"?>
<!-- Created with Inkscape (http://www.inkscape.org/) -->

<svg
   xmlns:dc="http://purl.org/dc/elements/1.1/"
   xmlns:cc="http://creativecommons.org/ns#"
   xmlns:rdf="http://www.w3.org/1999/02/22-rdf-syntax-ns#"
   xmlns:svg="http://www.w3.org/2000/svg"
   xmlns="http://www.w3.org/2000/svg"
   xmlns:sodipodi="http://sodipodi.sourceforge.net/DTD/sodipodi-0.dtd"
   xmlns:inkscape="http://www.inkscape.org/namespaces/inkscape"
   width="13.566125mm"
   height="16.828863mm"
   viewBox="0 0 48.068947 59.62983"
   id="svg4887"
   version="1.1"
   inkscape:version="0.91 r13725"
   sodipodi:docname="MouthTie.svg">
  <defs
     id="defs4889" />
  <sodipodi:namedview
     id="base"
     pagecolor="#ffffff"
     bordercolor="#666666"
     borderopacity="1.0"
     inkscape:pageopacity="0.0"
     inkscape:pageshadow="2"
     inkscape:zoom="5.6"
     inkscape:cx="78.653547"
     inkscape:cy="21.66008"
     inkscape:document-units="mm"
     inkscape:current-layer="layer1"
     showgrid="false"
     inkscape:window-width="1920"
     inkscape:window-height="1017"
     inkscape:window-x="1912"
     inkscape:window-y="-8"
     inkscape:window-maximized="1"
     fit-margin-top="0"
     fit-margin-left="0"
     fit-margin-right="0"
     fit-margin-bottom="0" />
  <metadata
     id="metadata4892">
    <rdf:RDF>
      <cc:Work
         rdf:about="">
        <dc:format>image/svg+xml</dc:format>
        <dc:type
           rdf:resource="http://purl.org/dc/dcmitype/StillImage" />
        <dc:title></dc:title>
      </cc:Work>
    </rdf:RDF>
  </metadata>
  <g
     inkscape:label="Layer 1"
     inkscape:groupmode="layer"
     id="layer1"
     transform="translate(-227.3941,-536.833)">
    <path
       style="color:#000000;font-style:normal;font-variant:normal;font-weight:normal;font-stretch:normal;font-size:medium;line-height:normal;font-family:sans-serif;text-indent:0;text-align:start;text-decoration:none;text-decoration-line:none;text-decoration-style:solid;text-decoration-color:#000000;letter-spacing:normal;word-spacing:normal;text-transform:none;direction:ltr;block-progression:tb;writing-mode:lr-tb;baseline-shift:baseline;text-anchor:start;white-space:normal;clip-rule:nonzero;display:inline;overflow:visible;visibility:visible;opacity:1;isolation:auto;mix-blend-mode:normal;color-interpolation:sRGB;color-interpolation-filters:linearRGB;solid-color:#000000;solid-opacity:1;fill:#000000;fill-opacity:1;fill-rule:nonzero;stroke:none;stroke-width:5.04400015;stroke-linecap:butt;stroke-linejoin:miter;stroke-miterlimit:4;stroke-dasharray:none;stroke-dashoffset:0;stroke-opacity:1;color-rendering:auto;image-rendering:auto;shape-rendering:auto;text-rendering:auto;enable-background:accumulate"
       d="m 230.74414,569.38672 -0.46094,0.17383 c -2.11183,0.79221 -2.93345,2.91056 -2.09375,4.91211 l -0.19336,-0.86524 c 0.0129,0.29551 -0.0884,0.83532 -0.26171,1.64453 -0.17328,0.80921 -0.41248,1.92073 -0.17774,3.25391 l -0.0352,-0.2793 c 0.24832,3.97007 0.0459,8.054 -0.11718,12.23438 l -0.01,0.25 0.0391,0.24804 c 0.22817,1.41901 1.50093,2.53854 2.47266,2.875 0.94779,0.32818 1.71678,0.29355 2.39844,0.2168 0.82941,-0.0276 1.61408,-0.12725 2.4414,-0.28906 l -0.002,-0.01 c 0.41662,-0.0816 1.55823,-0.26056 2.72852,-0.48437 1.1684,-0.22345 2.32332,-0.43858 3.44726,-0.91992 4.60867,-1.78295 8.66356,-4.17298 12.7207,-6.02149 2.10254,1.05559 4.13395,2.35543 6.13086,3.79102 l 0.002,0.002 0.002,0.002 c 3.02959,2.16898 5.99343,3.30619 7.81055,5.16211 l -0.3086,-0.38476 c 1.7658,2.69938 5.92393,1.70962 6.31446,-1.47461 l 0.0312,-0.25195 -0.0195,-0.25196 c -0.11962,-1.53961 -0.24235,-2.94024 -0.18164,-4.21094 0.55128,-4.87337 1.68426,-9.89982 2.00781,-15.25781 l -0.0625,0.42383 c 0.79967,-3.40174 -3.64315,-5.75315 -5.96289,-3.08789 l 0.61718,-0.51367 c -2.09717,1.24319 -4.12107,2.55913 -6.10937,3.8789 -3.49842,2.27612 -6.77332,4.56725 -10.15625,6.38477 -2.30911,-1.29294 -4.6213,-2.58103 -6.79492,-4.03711 l -0.0742,-0.0488 -0.0742,-0.043 c -4.25082,-2.43962 -8.65592,-4.11051 -12.74023,-6.0039 -0.54849,-0.36618 -1.41693,-0.96671 -2.83789,-1.00391 l -0.49024,-0.0137 z m 2.04297,5.96484 c 4.0087,1.82101 7.96966,3.39767 11.51367,5.43164 l -0.14844,-0.0918 c 1.39716,0.93594 2.86254,1.69972 4.29493,2.55273 -3.21346,1.60735 -6.31921,3.23917 -9.41407,4.42969 l -0.0469,0.0176 -0.0449,0.0195 c -0.21682,0.0933 -1.3551,0.40062 -2.41602,0.60351 -1.06092,0.2029 -2.08288,0.35727 -2.75977,0.49024 l 0.002,0.008 c -0.56534,0.11026 -0.92519,0.13661 -1.3086,0.16406 0.14593,-3.62006 0.33395,-7.28863 0.0977,-11.0664 l -0.01,-0.14063 -0.0234,-0.13867 c -0.0386,-0.2195 -0.008,-0.62072 0.14258,-1.32227 0.0492,-0.22979 0.0613,-0.66934 0.12109,-0.95703 z m 37.23633,0.89258 c -0.45818,3.88012 -1.16353,7.83033 -1.62891,12 l -0.008,0.0762 -0.004,0.0742 c -0.0242,0.46674 0.0448,0.83993 0.0508,1.28711 -2.0732,-1.41404 -4.14339,-2.53286 -5.7207,-3.66211 -1.26738,-0.911 -2.69035,-1.67521 -4.05469,-2.5 2.78767,-1.69421 5.45297,-3.48069 8.02344,-5.15234 l 0.01,-0.006 0.01,-0.006 c 1.10598,-0.73412 2.21596,-1.40979 3.32227,-2.11133 z"
       id="path4635"
       inkscape:connector-curvature="0" />
    <path
       style="fill:#000000"
       d="m 236.01398,562.80729 c -1.55265,-0.89463 -2.20576,-2.44649 -2.20295,-5.23427 0.003,-3.52982 -1.56357,-9.79725 -2.57661,-12.92028 -0.43308,-1.33513 -1.07826,-3.75152 -0.83208,-3.99159 0.19819,-0.19329 3.05221,1.09203 5.13336,1.06402 2.00717,-0.0271 4.36944,-0.28351 5.27855,-0.40242 7.91011,-1.03461 15.44752,-2.05595 19.42411,-2.1411 2.30702,-0.0494 7.53955,-2.34865 7.53955,-2.34865 0,0 -0.6264,5.05478 -0.51709,7.95823 0.051,1.35688 0.16886,3.02017 0.26173,3.69619 0.32245,2.34744 -0.19,6.43043 -0.94429,7.52386 -0.66139,0.95876 -0.83531,1.02272 -3.29328,1.21126 -8.6015,0.65979 -8.70478,0.67343 -13.91097,1.83655 -1.56439,0.34949 -3.10395,0.7667 -3.42124,0.92712 -0.31728,0.16041 -1.52994,0.61227 -2.69478,1.00412 -2.89372,0.97344 -4.34984,1.63961 -4.6593,2.13158 -0.37155,0.59073 -1.18545,0.49165 -2.58471,-0.31462 z"
       id="path4870" />
    <path
       style="fill:#ffffff;fill-opacity:1"
       d="m 242.38503,555.2988 c 4.21891,-1.63407 6.25049,-2.08477 16.02413,-3.55493 3.79619,-0.57103 3.74788,-0.51853 3.74207,-4.06654 -0.002,-1.6741 -0.14432,-3.25827 -0.31461,-3.52036 -0.52499,-0.80802 -8.56508,-0.43151 -13.85408,0.64877 -0.89603,0.18301 -2.06903,0.4047 -2.60665,0.49261 -0.53762,0.0879 -1.56399,0.28642 -2.28082,0.44109 -0.71683,0.15467 -2.21972,0.45328 -3.33977,0.66356 l -2.03645,0.38233 0.005,1.30678 c 0.003,0.71872 0.22305,2.30745 0.48875,3.5305 0.2657,1.22304 0.48308,2.75988 0.48308,3.41519 0,1.49998 0.41415,1.52929 3.6887,0.261 z"
       id="path4868" />
  </g>
</svg>
